<svg width="30" height="30" viewBox="0 0 30 30" fill="none" xmlns="http://www.w3.org/2000/svg">
<path d="M29.2975 29.2942H0.707802L15.0027 5.40747L29.2975 29.2942Z" fill="#85D9BF" fill-opacity="0.3"/>
<path d="M20.6521 29.2942H15.0027V16.7949L20.6521 29.2942Z" fill="white"/>
<path d="M29.902 28.9322L15.8235 5.40747L18.4127 1.08163C18.4627 1.00205 18.4962 0.913283 18.5114 0.820554C18.5266 0.727825 18.5232 0.632995 18.5012 0.541624C18.4793 0.450254 18.4393 0.364184 18.3836 0.288461C18.328 0.212738 18.2577 0.148886 18.1771 0.100652C18.0964 0.0524171 18.0069 0.0207698 17.9138 0.00756671C17.8207 -0.0056364 17.7259 -0.000128337 17.635 0.0237648C17.5441 0.0476579 17.4588 0.0894555 17.3843 0.146708C17.3097 0.203961 17.2474 0.275516 17.2009 0.357176L15.001 4.0331L12.8011 0.356611C12.7545 0.274952 12.6922 0.203397 12.6176 0.146144C12.5431 0.0888912 12.4579 0.0470914 12.3669 0.0231983C12.276 -0.000694839 12.1812 -0.00620075 12.0881 0.00700236C11.9951 0.0202055 11.9055 0.0518527 11.8249 0.100087C11.7442 0.148322 11.6739 0.212173 11.6183 0.287897C11.5626 0.36362 11.5226 0.44969 11.5007 0.54106C11.4787 0.63243 11.4753 0.727261 11.4905 0.81999C11.5057 0.912719 11.5393 1.00148 11.5892 1.08107L14.1784 5.40747L0.0999197 28.9322C0.0358258 29.0395 0.00135952 29.1618 3.94026e-05 29.2867C-0.00128071 29.4116 0.0305918 29.5347 0.0924049 29.6432C0.154218 29.7518 0.243755 29.8421 0.351873 29.9047C0.45999 29.9674 0.582816 30.0003 0.707803 30H29.2941C29.419 29.9999 29.5416 29.9668 29.6495 29.9039C29.7574 29.8411 29.8467 29.7507 29.9082 29.6421C29.9698 29.5335 30.0014 29.4106 29.9999 29.2858C29.9985 29.1609 29.9639 29.0388 29.8997 28.9317L29.902 28.9322ZM14.2948 7.96255V28.5884H1.95069L14.2948 7.96255ZM15.7071 28.5884V20.0716L18.781 26.8724C18.8602 27.0397 19.0019 27.1692 19.1757 27.2331C19.3495 27.297 19.5414 27.2901 19.7102 27.2139C19.8789 27.1378 20.011 26.9984 20.0779 26.8258C20.1448 26.6532 20.1413 26.4613 20.068 26.2913L15.7071 16.6442V7.96255L28.0512 28.5884H15.7071Z" fill="#85D9BF"/>
</svg>
